<?xml version="1.0" encoding="UTF-8" standalone="no"?>
<!-- Created with Inkscape (http://www.inkscape.org/) -->

<svg
   width="262"
   height="60"
   viewBox="0 0 87.333333 20"
   version="1.1"
   id="svg5"
   inkscape:version="1.2.2 (b0a84865, 2022-12-01)"
   sodipodi:docname="logotype.svg"
   xml:space="preserve"
   xmlns:inkscape="http://www.inkscape.org/namespaces/inkscape"
   xmlns:sodipodi="http://sodipodi.sourceforge.net/DTD/sodipodi-0.dtd"
   xmlns:xlink="http://www.w3.org/1999/xlink"
   xmlns="http://www.w3.org/2000/svg"
   xmlns:svg="http://www.w3.org/2000/svg"><sodipodi:namedview
     id="namedview7"
     pagecolor="#505050"
     bordercolor="#eeeeee"
     borderopacity="1"
     inkscape:showpageshadow="0"
     inkscape:pageopacity="0"
     inkscape:pagecheckerboard="true"
     inkscape:deskcolor="#505050"
     inkscape:document-units="px"
     showgrid="false"
     inkscape:zoom="2.7911171"
     inkscape:cx="147.43201"
     inkscape:cy="37.798486"
     inkscape:window-width="1680"
     inkscape:window-height="935"
     inkscape:window-x="0"
     inkscape:window-y="25"
     inkscape:window-maximized="1"
     inkscape:current-layer="layer1" /><defs
     id="defs2" /><g
     inkscape:label="Layer 1"
     inkscape:groupmode="layer"
     id="layer1"
     transform="translate(-4.2605934,-9.2944918)"><image
       preserveAspectRatio="none"
       inkscape:svg-dpi="200"
       width="19.850218"
       height="19.850218"
       xlink:href="merlon.svg"
       id="image245"
       x="13.278103"
       y="9.3693829" /><g
       aria-label="Merlon"
       id="text670"
       style="font-size:15.5045px;line-height:1.25;font-family:'Comic Code Ligatures';-inkscape-font-specification:'Comic Code Ligatures';fill:#534295;stroke-width:0.387612;fill-opacity:1"><path
         d="m 47.590604,23.269098 q -0.0155,0.186054 -0.04651,0.387612 -0.03101,0.201559 -0.108531,0.372108 -0.07752,0.186054 -0.201559,0.279081 -0.170549,0.155045 -0.403117,0.17055 -0.217063,0.07752 -0.418621,0.04651 -0.201559,-0.03101 -0.372108,-0.108531 -0.217063,-0.139541 -0.325595,-0.325595 -0.09303,-0.201558 -0.13954,-0.418621 -0.04651,-0.217063 -0.04651,-0.449631 0,-0.232567 0,-0.434126 v -1.209351 l -0.0155,-2.372188 q 0,-0.248072 0,-0.387613 0,-0.13954 0,-0.248072 0,-0.124036 -0.01551,-0.263576 0,-0.155045 0,-0.434126 0,-0.04651 0,-0.155045 0.01551,-0.124036 -0.0155,-0.635685 -0.604676,1.007793 -1.007793,1.627973 -0.387612,0.604675 -0.666693,0.945774 -0.263577,0.325595 -0.465135,0.449631 -0.201559,0.108531 -0.418622,0.124036 -0.124036,0.0155 -0.248072,-0.04651 -0.124036,-0.06202 -0.248072,-0.155045 -0.108531,-0.09303 -0.217063,-0.186054 -0.09303,-0.108531 -0.155045,-0.201558 -0.372108,-0.465135 -0.837243,-1.116324 -0.465135,-0.651189 -0.961279,-1.581459 0,0.0155 -0.0155,0.511648 0,0.496144 0,1.24036 0,0.728712 -0.0155,1.581459 0,0.837243 -0.0155,1.565955 0,0.728711 -0.0155,1.224855 -0.0155,0.48064 -0.03101,0.48064 0,0.263576 -0.124036,0.496144 -0.124036,0.217063 -0.341099,0.356603 -0.201558,0.139541 -0.480639,0.155045 -0.279081,0.01551 -0.604676,-0.155045 -0.201558,-0.124036 -0.31009,-0.356603 -0.09303,-0.232568 -0.124036,-0.434126 -0.0155,-0.217063 -0.03101,-0.418622 0,-0.201558 0,-0.418621 l 0.0155,-1.209351 0.0155,-2.387693 v -2.077603 q 0,-1.348892 0.09303,-2.65127 0,-0.17055 0.03101,-0.31009 0.04651,-0.155045 0.108532,-0.294586 0.124036,-0.248072 0.325594,-0.372108 0.232568,-0.13954 0.496144,-0.13954 0.108532,0 0.201559,0.0155 0.108531,0 0.201558,0.01551 0.31009,0.06202 0.527153,0.372108 0.232568,0.294585 0.434126,0.511648 0.124036,0.139541 0.263577,0.3411 0.13954,0.201558 0.279081,0.418621 0.13954,0.217063 0.263576,0.418622 0.124036,0.201558 0.217063,0.356603 0.403117,0.651189 0.713207,1.193847 0.325595,0.542657 0.604676,0.93027 0.04651,-0.04651 0.108531,-0.124036 0.06202,-0.09303 0.124036,-0.186054 0.07752,-0.108532 0.124036,-0.201559 0.06202,-0.09303 0.09303,-0.155045 0.155045,-0.248072 0.31009,-0.480639 0.155045,-0.248072 0.325595,-0.511649 0.186054,-0.279081 0.372108,-0.604675 0.201558,-0.325595 0.465135,-0.744216 0.108531,-0.186054 0.279081,-0.449631 0.170549,-0.263577 0.387612,-0.511649 0.217063,-0.248072 0.449631,-0.418621 0.248072,-0.186054 0.496144,-0.186054 0.124036,0 0.217063,0.0155 0.09303,0 0.186054,0.01551 0.186054,0.0155 0.356603,0.170549 0.124036,0.124036 0.186054,0.263577 0.06202,0.201558 0.07752,0.341099 0.0155,0.108531 0.0155,0.201559 0.0155,0.09303 0.0155,0.186054 0,0.868252 0.0155,1.720999 0.01551,0.852748 0.01551,1.721 0,1.054306 0,2.17063 0.0155,1.116324 0.0155,2.17063 0,0.217063 0.0155,0.465135 0.0155,0.248072 0,0.496144 z"
         style="font-family:Jua;-inkscape-font-specification:Jua;fill:#534295;fill-opacity:1"
         id="path4001" /><path
         d="m 54.211004,22.261305 q 0.186054,-0.04651 0.372108,-0.06202 0.201559,-0.0155 0.356604,0.04651 0.170549,0.06202 0.279081,0.217063 0.108531,0.13954 0.108531,0.403117 0,0.186054 -0.09303,0.356603 -0.09303,0.17055 -0.232567,0.31009 -0.139541,0.139541 -0.31009,0.248072 -0.17055,0.09303 -0.325595,0.155045 -0.44963,0.201559 -1.038802,0.31009 -0.573666,0.108532 -1.193846,0.07752 -0.837243,-0.03101 -1.612468,-0.325595 -0.759721,-0.31009 -1.193847,-1.007792 -0.403117,-0.682198 -0.480639,-1.519441 -0.07752,-0.837243 0.07752,-1.581459 0.17055,-0.899261 0.573667,-1.457423 0.418621,-0.573667 0.992288,-0.914766 0.697702,-0.403117 1.565954,-0.418621 0.868252,-0.0155 1.658982,0.341099 0.527153,0.232567 0.945775,0.635684 0.418621,0.387613 0.635684,0.945775 0.06202,0.13954 0.09303,0.341099 0.04651,0.201558 0.06202,0.434126 0.01551,0.217063 0,0.434126 -0.0155,0.217063 -0.07752,0.387612 -0.09303,0.279081 -0.232568,0.434126 -0.13954,0.155045 -0.356603,0.232568 -0.217063,0.07752 -0.527153,0.108531 -0.294586,0.01551 -0.713208,0.03101 -0.372108,0.01551 -0.697702,0.01551 -0.325595,0 -0.666694,0 -0.341099,-0.01551 -0.713207,-0.01551 -0.356603,-0.0155 -0.806234,-0.03101 -0.04651,0.31009 0.07752,0.542658 0.13954,0.217063 0.372108,0.372108 0.232567,0.13954 0.527153,0.217063 0.294585,0.07752 0.573666,0.09303 0.527153,0.03101 1.007793,-0.07752 0.480639,-0.124036 0.992288,-0.279081 z M 53.54431,19.253432 q -0.294585,-0.341099 -0.62018,-0.496144 -0.248072,-0.108531 -0.527153,-0.09303 -0.263576,0 -0.511648,0.07752 -0.449631,0.108531 -0.759721,0.465135 -0.03101,0.03101 -0.108531,0.155045 -0.07752,0.108531 -0.155045,0.232567 -0.06202,0.124036 -0.09303,0.232568 -0.03101,0.108531 0.03101,0.108531 h 3.038882 q -0.0155,-0.217063 -0.07752,-0.356603 -0.06202,-0.155045 -0.217063,-0.325595 z"
         style="font-family:Jua;-inkscape-font-specification:Jua;fill:#534295;fill-opacity:1"
         id="path4003" /><path
         d="m 56.722732,18.896829 q 0,-0.186054 0,-0.418622 0,-0.248072 0.0155,-0.496144 0.0155,-0.263576 0.04651,-0.496144 0.04651,-0.248072 0.124036,-0.434126 0.124036,-0.279081 0.387613,-0.372108 0.263576,-0.108531 0.573666,-0.09303 0.325595,0 0.511649,0.108532 0.186054,0.108531 0.279081,0.294585 0.09303,0.17055 0.108531,0.403117 0.03101,0.217063 0.03101,0.465135 0.139541,-0.248072 0.372108,-0.403117 0.248072,-0.155045 0.496144,-0.248072 0.248072,-0.09303 0.449631,-0.124036 0.201558,-0.04651 0.232567,-0.04651 0.387613,-0.03101 0.697703,-0.01551 0.325594,0.01551 0.713207,0.139541 0.248072,0.09303 0.511648,0.263576 0.263577,0.155045 0.465135,0.372108 0.201559,0.217063 0.263577,0.48064 0.07752,0.248072 -0.06202,0.527153 -0.217063,0.387612 -0.48064,0.387612 -0.263576,-0.0155 -0.573666,-0.09303 -0.17055,-0.03101 -0.403117,-0.13954 -0.232568,-0.108532 -0.403117,-0.139541 -0.527153,-0.07752 -0.93027,0.07752 -0.403117,0.155045 -0.697703,0.372108 -0.341099,0.263576 -0.589171,0.604675 v 2.232648 q 0,0.418622 -0.0155,0.868252 0,0.449631 -0.124036,0.821739 -0.108532,0.356603 -0.387613,0.589171 -0.263576,0.217063 -0.775225,0.186054 -0.279081,-0.01551 -0.496144,-0.263577 -0.217063,-0.263576 -0.263576,-0.511648 -0.03101,-0.232568 -0.04651,-0.558162 -0.0155,-0.325595 -0.03101,-0.682198 0,-0.356604 0,-0.713207 0,-0.372108 0,-0.682198 z"
         style="font-family:Jua;-inkscape-font-specification:Jua;fill:#534295;fill-opacity:1"
         id="path4005" /><path
         d="m 66.335507,23.145062 q -0.0155,0.07752 -0.03101,0.155045 0,0.06202 0,0.13954 l -0.09303,0.325595 q -0.03101,0.06202 -0.04651,0.07752 l -0.04651,0.09303 q -0.07752,0.17055 -0.279081,0.279081 -0.372108,0.186054 -0.790729,0.09303 -0.263577,-0.03101 -0.418622,-0.155045 -0.155045,-0.108531 -0.217063,-0.263576 -0.06202,-0.155045 -0.09303,-0.31009 -0.04651,-0.155045 -0.04651,-0.279081 v -8.68252 q 0,-0.108532 0,-0.186054 0.0155,-0.09303 0.03101,-0.17055 0.0155,-0.108532 0.03101,-0.186054 0.03101,-0.07752 0.06202,-0.17055 0.04651,-0.155045 0.170549,-0.248072 0.186054,-0.13954 0.356604,-0.155045 0.108531,-0.03101 0.201558,-0.03101 0.09303,-0.0155 0.217063,-0.0155 0.217063,0 0.496144,0.124036 0.217063,0.124036 0.31009,0.341099 0.155045,0.31009 0.155045,0.573667 0.01551,0.155045 0.01551,0.465135 0.0155,0.31009 0.0155,0.465135 v 0.06202 q 0.03101,0.496144 0.03101,0.961279 0,0.44963 -0.0155,0.992288 0,0.527153 -0.0155,1.023297 0,0.480639 0,0.961279 v 3.255945 q 0,0.06202 0,0.124036 0.0155,0.04651 0.0155,0.108531 0,0.155045 -0.0155,0.232568 z"
         style="font-family:Jua;-inkscape-font-specification:Jua;fill:#534295;fill-opacity:1"
         id="path4007" /><path
         d="m 69.606928,17.377388 q 0.511649,-0.248072 1.069811,-0.356604 0.558162,-0.108531 1.100819,-0.04651 0.558162,0.06202 1.069811,0.294585 0.527153,0.232568 0.961279,0.651189 0.356603,0.356604 0.62018,0.868252 0.263576,0.496144 0.387612,0.976784 0.263577,0.852747 0.07752,1.720999 -0.186054,0.868252 -0.635685,1.612468 -0.217063,0.341099 -0.542657,0.62018 -0.31009,0.263577 -0.666694,0.434126 -0.465135,0.217063 -1.007792,0.294586 -0.542658,0.09303 -1.054306,0.04651 -0.93027,-0.04651 -1.643477,-0.465135 -0.697703,-0.418621 -1.131829,-1.06981 -0.418621,-0.651189 -0.558162,-1.472928 -0.124036,-0.837243 0.108532,-1.705495 0.248072,-0.93027 0.713207,-1.503936 0.480639,-0.589171 1.131828,-0.899261 z m 0.465135,2.077603 q -0.232567,0.217063 -0.356603,0.542657 -0.124036,0.325595 -0.155045,0.682198 -0.03101,0.341099 0.04651,0.697703 0.09303,0.341099 0.279081,0.62018 0.155045,0.232567 0.558162,0.387612 0.403117,0.155045 0.837243,0.186054 0.496144,0.03101 0.868252,-0.263576 0.372108,-0.31009 0.558162,-0.759721 0.201559,-0.44963 0.186054,-0.976783 -0.0155,-0.527153 -0.279081,-0.961279 -0.186054,-0.31009 -0.527153,-0.449631 -0.325594,-0.155045 -0.697702,-0.155045 -0.356604,-0.0155 -0.713207,0.108532 -0.356604,0.108531 -0.604676,0.341099 z"
         style="font-family:Jua;-inkscape-font-specification:Jua;fill:#534295;fill-opacity:1"
         id="path4009" /><path
         d="m 76.227325,18.850315 q 0,-0.356603 -0.0155,-0.75972 0,-0.403117 0.139541,-0.728712 0.124036,-0.294585 0.403117,-0.418621 0.294586,-0.139541 0.573667,-0.06202 0.279081,0.04651 0.434126,0.170549 0.155045,0.124036 0.217063,0.294586 0.07752,0.155045 0.09303,0.372108 0.0155,0.201558 0.03101,0.403117 0.155045,-0.279081 0.387612,-0.449631 0.232568,-0.170549 0.48064,-0.279081 0.248072,-0.108531 0.465135,-0.155045 0.232567,-0.04651 0.356603,-0.04651 0.589171,0 1.162838,0.263576 0.589171,0.248072 0.976783,0.713207 0.217063,0.279081 0.325595,0.589171 0.124036,0.294586 0.170549,0.62018 0.06202,0.325595 0.07752,0.666694 0.0155,0.325594 0.03101,0.666693 0.07752,0.992288 0,1.969072 -0.0155,0.201558 -0.0155,0.465135 0,0.263576 -0.04651,0.527153 -0.03101,0.248072 -0.139541,0.44963 -0.09303,0.186054 -0.325594,0.232568 -0.325595,0.07752 -0.542658,0.03101 -0.201558,-0.03101 -0.325594,-0.139541 -0.124036,-0.108531 -0.186054,-0.279081 -0.06202,-0.170549 -0.108532,-0.387612 -0.03101,-0.17055 -0.06202,-0.387613 -0.0155,-0.232567 -0.03101,-0.465135 0,-0.232567 -0.0155,-0.44963 0,-0.232568 0,-0.418622 0,-0.294585 -0.01551,-0.651189 -0.0155,-0.356603 0,-0.666693 0,-0.728712 -0.387612,-1.10082 -0.372108,-0.387612 -1.023297,-0.325594 -0.496144,0.06202 -0.868252,0.403117 -0.372108,0.325594 -0.356604,0.852747 0,0.201559 0,0.372108 0,0.17055 -0.0155,0.341099 0,0.17055 0,0.372108 0,0.201559 0,0.449631 0,0.511648 0,1.085315 0,0.558162 -0.139541,0.914765 -0.124036,0.372108 -0.418621,0.511649 -0.294586,0.13954 -0.697703,-0.07752 -0.17055,-0.09303 -0.279081,-0.248072 -0.09303,-0.170549 -0.155045,-0.356603 -0.04651,-0.186054 -0.06202,-0.372108 -0.01551,-0.201559 -0.03101,-0.372108 -0.04651,-0.511649 -0.06202,-0.945775 0,-0.44963 0,-0.961279 z"
         style="font-family:Jua;-inkscape-font-specification:Jua;fill:#534295;fill-opacity:1"
         id="path4011" /></g></g></svg>
